<?xml version="1.0" encoding="UTF-8" standalone="no"?>
<svg width="140px" height="140px" viewBox="0 0 140 140" version="1.1" xmlns="http://www.w3.org/2000/svg" xmlns:xlink="http://www.w3.org/1999/xlink" xmlns:sketch="http://www.bohemiancoding.com/sketch/ns">
    <!-- Generator: Sketch Beta 3.3 (11920) - http://www.bohemiancoding.com/sketch -->
    <title>Oval 1 + Oval 1 Copy + MAP OF THE DAY Copy Copy + Group Copy</title>
    <desc>Created with Sketch Beta.</desc>
    <defs></defs>
    <g id="Page-1" stroke="none" stroke-width="1" fill="none" fill-rule="evenodd" sketch:type="MSPage">
        <g id="Desktop-HD-Copy-2" sketch:type="MSArtboardGroup" transform="translate(-49.000000, -50.000000)">
            <g id="Oval-1-+-Oval-1-Copy-+-MAP-OF-THE-DAY-Copy-Copy-+-Group-Copy" sketch:type="MSLayerGroup" transform="translate(49.000000, 50.000000)">
                <g id="Oval-1-+-Oval-1-Copy-+-MAP-OF-THE-DAY-Copy-Copy" sketch:type="MSShapeGroup">
                    <circle id="Oval-1" fill="#FE4231" cx="70" cy="70" r="50.9090909"></circle>
                    <circle id="Oval-1-Copy" cx="70.3977273" cy="70.3977273" r="69.6022727"></circle>
                    <path d="M73.9677112,139.918237 L74.3087496,139.90622 L74.0753331,133.281808 L77.2562809,137.515602 L77.2769499,137.514874 L80.1520165,133.067691 L80.385433,139.692103 L80.7368059,139.679722 L80.4819049,132.445575 L80.151201,132.457228 L77.2576503,136.967146 L74.0435141,132.672437 L73.7128103,132.68409 L73.9677112,139.918237 Z M91.8976256,136.617203 L92.2425538,136.507571 L92.5496437,134.196427 L96.8168977,132.840121 L98.3921301,134.552986 L98.7567684,134.43709 L93.2765739,128.52919 L92.961211,128.629425 L91.8976256,136.617203 Z M92.6003673,133.843934 L93.2343312,128.976644 L96.5719686,132.581598 L92.6003673,133.843934 Z M108.699998,128.532226 L108.99634,128.343023 L107.499415,125.998435 L109.312331,124.840961 C110.706881,123.950596 111.263295,122.650649 110.484226,121.430417 L110.473096,121.412985 C109.73298,120.253765 108.413053,120.127248 106.983638,121.039872 L104.804653,122.431067 L108.699998,128.532226 Z M107.321342,125.719525 L105.273503,122.512058 L107.129999,121.326761 C108.385094,120.525432 109.542369,120.60857 110.182319,121.610904 L110.193448,121.628336 C110.838963,122.639385 110.406785,123.749593 109.142974,124.556486 L107.321342,125.719525 Z M131.346862,104.569947 C132.53804,102.729525 131.837619,100.576324 130.179503,99.5031398 L130.162141,99.4919023 C128.504024,98.418718 126.258443,98.6528573 125.067265,100.49328 C123.876086,102.333702 124.576507,104.486903 126.234623,105.560087 L126.251986,105.571324 C127.910102,106.644509 130.155683,106.410369 131.346862,104.569947 L131.346862,104.569947 Z M131.088981,104.378403 C130.038272,106.001794 127.97654,106.256384 126.439961,105.261862 L126.422599,105.250625 C124.88602,104.256103 124.280055,102.299534 125.330764,100.676143 C126.375855,99.0614325 128.437586,98.8068428 129.974165,99.8013643 L129.991527,99.8126019 C131.528106,100.807123 132.134071,102.763693 131.088981,104.378403 L131.088981,104.378403 Z M137.148578,90.2094777 L137.253715,89.8739745 L134.017095,88.8597144 L135.284921,84.8139398 L134.979021,84.7180798 L133.711195,88.7638545 L130.652195,87.805255 L132.056079,83.3252997 L131.750179,83.2294397 L130.241158,88.0448983 L137.148578,90.2094777 Z M139.139121,59.0223496 L139.096984,58.6732927 L132.228778,59.5023935 L131.91895,56.9357991 L131.600692,56.9742179 L132.261246,62.446197 L132.579504,62.4077782 L132.270915,59.8514503 L139.139121,59.0223496 Z M135.286849,45.1460702 L135.164375,44.8165002 L131.897756,46.0304317 L130.172316,41.387373 L133.438935,40.1734416 L133.316462,39.8438716 L126.531198,42.365391 L126.653672,42.6949609 L129.871826,41.4990403 L131.597265,46.142099 L128.379112,47.3380196 L128.501586,47.6675895 L135.286849,45.1460702 Z M126.759282,29.5358019 L123.797657,25.3228533 L123.535405,25.5072115 L126.294831,29.4325291 L123.706152,31.2523228 L121.238131,27.7415324 L120.975879,27.9258905 L123.4439,31.436681 L120.89752,33.2267396 L118.167829,29.3437207 L117.905577,29.5280789 L120.837467,33.6987288 L126.759282,29.5358019 Z M104.750919,9.84292868 L102.422691,8.47770639 C100.4602,7.32694431 98.3039941,7.89669574 97.273539,9.65401738 L97.2630775,9.67185821 C96.2326224,11.4291799 96.7986841,13.5712344 98.7611753,14.7219965 L101.089403,16.0872188 L104.750919,9.84292868 Z M99.3470178,13.7229101 C98.0357169,12.9539918 97.7076615,11.5508792 98.4242725,10.3287824 L98.4347339,10.3109416 C99.1513449,9.08884481 100.525548,8.70787451 101.836849,9.47679281 L103.067866,10.1986345 L100.578035,14.4447518 L99.3470178,13.7229101 Z M89.1150173,3.34029597 L87.8614246,2.98505537 L86.6686124,4.46346682 L83.3754442,3.53025539 L83.1455282,1.64867405 L81.8521389,1.28215596 L82.9288209,9.16467152 L84.0630238,9.48607969 L89.1150173,3.34029597 Z M85.9135894,5.42105235 L83.930268,7.86848953 L83.5158446,4.74158421 L85.9135894,5.42105235 Z M69.5402352,0.734545466 L68.2585812,0.694715391 L68.1689636,3.57843684 L65.1603485,7.84056234 L66.6177131,7.88585299 L68.7634791,4.75565361 L70.6797294,8.01208863 L72.1887736,8.05898533 L69.4515812,3.58725915 L69.5402352,0.734545466 Z M43.0857811,9.23029873 L42.4592493,9.5009721 L42.8078438,10.3078692 L43.4343756,10.0371958 L43.0857811,9.23029873 Z M18.5474874,23.5764467 C17.6305398,24.4727895 17.3931606,25.4134173 17.3736356,26.4881475 L17.8782228,26.4865687 C17.8972494,25.4557084 18.1255721,24.6685422 18.8724408,23.9384566 C20.1073622,22.7312853 22.0588263,22.8192736 23.3382833,24.1281425 L23.3527404,24.1429319 C24.6249689,25.444406 24.6761512,27.3755137 23.4338351,28.5899136 C22.6573875,29.3489136 21.8216986,29.529545 20.9441338,29.5341982 L20.9452142,30.0826554 C21.9547211,30.0502511 22.8418408,29.8482663 23.7661831,28.9446949 C25.2599204,27.4845236 25.1688562,25.201958 23.7375992,23.7377996 L23.7231421,23.7230102 C22.2701994,22.2366676 20.0264352,22.1307326 18.5474874,23.5764467 L18.5474874,23.5764467 Z M10.5684548,34.8078906 L10.2793883,35.2856576 L11.537081,37.1222926 L9.32625762,40.7763251 L7.11571608,40.5145516 L6.81059033,41.0188611 L14.7932086,41.908488 L15.0608628,41.4661112 L10.5684548,34.8078906 Z M11.8351474,37.5685333 L14.4280792,41.3733263 L9.85985967,40.8332743 L11.8351474,37.5685333 Z M3.22586714,52.0670405 L3.07654952,52.5836205 L5.95747628,53.4163534 L5.29990444,55.6912921 L1.77863479,57.0738926 L1.58911627,57.7295518 L5.22276593,56.2933209 C5.04287747,57.511504 5.45865103,58.568172 6.62095596,58.9041367 L6.64082442,58.9098796 C7.13753593,59.0534543 7.66187461,58.9897298 8.08446347,58.7566595 C8.62230383,58.4600245 9.08866105,57.8520929 9.33560943,56.9977491 L10.1798283,54.0770855 L3.22586714,52.0670405 Z M6.4243851,53.5513136 L9.55366762,54.4558338 L8.86738085,56.8301148 C8.50270127,58.091762 7.70409123,58.657477 6.77027359,58.3875567 L6.75040512,58.3818137 C5.74704787,58.0917929 5.41074816,57.0580968 5.74671281,55.8957919 L6.4243851,53.5513136 Z M0.733558309,71.2479107 L0.716642726,71.7853718 L7.45557863,71.9974672 L7.37620551,74.5194003 L7.87232349,74.5350147 L8.04798531,68.9536874 L7.55186733,68.938073 L7.47249421,71.4600061 L0.733558309,71.2479107 Z M2.9173226,88.5615541 C3.35093156,90.7105174 5.37268428,91.79003 7.30877852,91.3993729 L7.32905175,91.3952822 C9.26514599,91.0046251 10.6939344,89.2499751 10.2603254,87.1010119 C9.82671647,84.9520486 7.80496375,83.872536 5.86886952,84.2631931 L5.84859628,84.2672837 C3.91250204,84.6579409 2.48371364,86.4125909 2.9173226,88.5615541 L2.9173226,88.5615541 Z M3.39783435,88.4856971 C3.04399307,86.732062 4.22568199,85.1644118 5.97931708,84.8105705 L5.99959032,84.8064799 C7.75322541,84.4526386 9.42597241,85.4232338 9.77981368,87.1768689 C10.133655,88.930504 8.95196604,90.4981542 7.19833095,90.8519955 L7.17805771,90.8560861 C5.42442262,91.2099274 3.75167562,90.2393322 3.39783435,88.4856971 L3.39783435,88.4856971 Z M8.82609335,102.901807 L9.91961232,105.0488 C10.9521195,107.076004 13.075316,107.758555 14.8905845,106.833992 L14.9090137,106.824605 C16.7242822,105.900042 17.4023124,103.790753 16.3698052,101.76355 L15.2762862,99.6165572 L8.82609335,102.901807 Z M15.9275062,101.988824 C16.8426831,103.785664 16.1667681,105.557332 14.637151,106.336406 L14.6187218,106.345792 C13.0798901,107.129559 11.2770881,106.620365 10.3619113,104.823526 L9.51243944,103.15569 L15.0780344,100.320989 L15.9275062,101.988824 Z M19.2711819,117.639122 L21.36947,119.979984 C22.4117118,121.142715 23.6717534,121.401968 24.5726774,120.594403 L24.5880778,120.580599 C25.3349977,119.911079 25.19384,119.009955 24.7834543,118.211288 C25.3539881,118.491448 26.1515383,118.637552 26.8830577,117.981837 L26.8984582,117.968032 C27.2372672,117.664333 27.4117385,117.285746 27.4348788,116.862274 C27.4659985,116.292778 27.2013584,115.641212 26.6560795,115.032896 L24.6613253,112.807537 L19.2711819,117.639122 Z M26.4787367,117.608237 C25.7626177,118.250148 24.8522374,118.024648 24.1274998,117.216126 L22.5330768,115.437379 L24.6506332,113.539256 L26.2795674,115.356505 C27.052621,116.218928 27.0870529,117.062958 26.4941371,117.594433 L26.4787367,117.608237 Z M24.2222578,120.172488 L24.2068574,120.186292 C23.5292394,120.793691 22.581156,120.5881 21.7528844,119.664076 L19.9997094,117.708224 L22.163467,115.768688 L23.7993035,117.593636 C24.7518159,118.656264 24.8844754,119.578893 24.2222578,120.172488 L24.2222578,120.172488 Z M45.066398,132.412735 L45.6947798,132.679086 L46.037807,131.869806 L45.4094253,131.603456 L45.066398,132.412735 Z" id="MAP-OF-THE-DAY-·-CAR" fill="#FFFFFF"></path>
                </g>
                <g id="Group-Copy" transform="translate(22.272727, 22.272727)" sketch:type="MSShapeGroup">
                    <path d="M43.8614128,49.959228 L58.913311,64.9867712 L56.1688286,64.6212037 L58.1370682,63.4848401 L57.0814177,66.0444153 L51.5931327,45.4953174 L52.1250893,45.1881921 L54.083243,46.0077467 L54.2425409,46.6041858 L43.4970168,52.808117 L43.0601344,52.3719415 L43.3294561,50.2663533 L43.8614128,49.959228 L43.8614128,49.959228 L43.8614128,49.959228 Z M59.2795743,65.4637188 L57.3113348,66.6000824 L41.8225541,51.1363636 L53.6319914,44.3181818 L59.2795743,65.4637188 L59.2795743,65.4637188 Z M38.1432107,28.8544631 L36.1749711,29.9908267 L41.8225541,51.1363636 L53.6319914,44.3181818 L38.1432107,28.8544631 L38.1432107,28.8544631 Z" id="Shape" fill="#FFFFFF"></path>
                    <path d="M47.7272727,92.7272727 L47.7272727,92.7272727 C72.5800865,92.7272727 92.7272727,72.5800865 92.7272727,47.7272727 C92.7272727,22.874459 72.5800865,2.72727273 47.7272727,2.72727273 C22.874459,2.72727273 2.72727273,22.874459 2.72727273,47.7272727 C2.72727273,72.5800865 22.874459,92.7272727 47.7272727,92.7272727 L47.7272727,92.7272727 Z M47.7272727,95.1136364 L47.7272727,95.1136364 C21.5565067,95.1136364 0.340909091,73.8980387 0.340909091,47.7272727 C0.340909091,21.5565067 21.5565067,0.340909091 47.7272727,0.340909091 C73.8980387,0.340909091 95.1136364,21.5565067 95.1136364,47.7272727 C95.1136364,73.8980387 73.8980387,95.1136364 47.7272727,95.1136364 L47.7272727,95.1136364 Z" id="Shape" opacity="0.5" fill="#FF8772"></path>
                    <path d="M50.6931818,8.06022727 L50.6931818,15.4545455 L49.9875,15.4545455 C49.8784085,15.4545455 49.7872163,15.4366479 49.7139205,15.4008523 C49.6406246,15.3650566 49.5698867,15.3045459 49.5017045,15.2193182 L45.6409091,10.2897727 C45.6613637,10.5147739 45.6715909,10.7227263 45.6715909,10.9136364 L45.6715909,15.4545455 L44.4596591,15.4545455 L44.4596591,8.06022727 L45.1806818,8.06022727 C45.2386367,8.06022727 45.2889202,8.06278407 45.3315341,8.06789773 C45.3741479,8.07301139 45.4116476,8.08323856 45.4440341,8.09857955 C45.4764206,8.11392053 45.5079544,8.1360794 45.5386364,8.16505682 C45.5693183,8.19403424 45.6034089,8.23238612 45.6409091,8.28011364 L49.5170455,13.2301136 C49.5068181,13.1107949 49.4982955,12.9931824 49.4914773,12.8772727 C49.4846591,12.7613631 49.48125,12.6539778 49.48125,12.5551136 L49.48125,8.06022727 L50.6931818,8.06022727 Z" id="N" opacity="0.5" fill="#FF8772"></path>
                    <path d="M84.0221591,45.6318182 L84.0221591,47.6823864 L86.6096591,47.6823864 L86.6096591,48.7409091 L84.0221591,48.7409091 L84.0221591,50.8323864 L87.3051136,50.8323864 L87.3051136,51.9318182 L82.6414773,51.9318182 L82.6414773,44.5375 L87.3051136,44.5375 L87.3051136,45.6318182 L84.0221591,45.6318182 Z" id="E" opacity="0.5" fill="#FF8772"></path>
                    <path d="M50.1017045,81.3369318 C50.0607952,81.4085231 50.0173298,81.4605112 49.9713068,81.4928977 C49.9252839,81.5252843 49.8681822,81.5414773 49.8,81.5414773 C49.7284087,81.5414773 49.6508527,81.5150571 49.5673295,81.4622159 C49.4838064,81.4093747 49.3840915,81.3505685 49.2681818,81.2857955 C49.1522721,81.2210224 49.0167621,81.1622162 48.8616477,81.109375 C48.7065333,81.0565338 48.5232965,81.0301136 48.3119318,81.0301136 C48.1210218,81.0301136 47.953978,81.0531248 47.8107955,81.0991477 C47.6676129,81.1451707 47.5474437,81.2090905 47.4502841,81.2909091 C47.3531245,81.3727277 47.2806821,81.4707381 47.2329545,81.5849432 C47.185227,81.6991483 47.1613636,81.8244311 47.1613636,81.9607955 C47.1613636,82.13466 47.2099427,82.2795449 47.3071023,82.3954545 C47.4042618,82.5113642 47.5329537,82.6102269 47.6931818,82.6920455 C47.8534099,82.773864 48.0357944,82.8471588 48.2403409,82.9119318 C48.4448874,82.9767049 48.6545444,83.0457383 48.8693182,83.1190341 C49.084092,83.1923299 49.293749,83.2775563 49.4982955,83.3747159 C49.7028419,83.4718755 49.8852265,83.5946015 50.0454545,83.7428977 C50.2056826,83.8911939 50.3343745,84.0727262 50.4315341,84.2875 C50.5286937,84.5022738 50.5772727,84.7630666 50.5772727,85.0698864 C50.5772727,85.4039789 50.520171,85.7167599 50.4059659,86.0082386 C50.2917608,86.2997174 50.124717,86.5536921 49.9048295,86.7701705 C49.6849421,86.9866488 49.4164789,87.1571017 49.0994318,87.2815341 C48.7823848,87.4059665 48.4193202,87.4681818 48.0102273,87.4681818 C47.7749988,87.4681818 47.543183,87.4451707 47.3147727,87.3991477 C47.0863625,87.3531248 46.8673306,87.2875004 46.6576705,87.2022727 C46.4480103,87.117045 46.2511373,87.0147733 46.0670455,86.8954545 C45.8829536,86.7761358 45.7193189,86.6431826 45.5761364,86.4965909 L45.9801136,85.8369318 C46.0142047,85.7892043 46.0585225,85.7491479 46.1130682,85.7167614 C46.1676139,85.6843748 46.2255679,85.6681818 46.2869318,85.6681818 C46.3721595,85.6681818 46.4642041,85.7031247 46.5630682,85.7730114 C46.6619323,85.8428981 46.7795448,85.9204541 46.9159091,86.0056818 C47.0522734,86.0909095 47.2116468,86.1684656 47.3940341,86.2383523 C47.5764214,86.308239 47.7954533,86.3431818 48.0511364,86.3431818 C48.4431838,86.3431818 48.7465898,86.250285 48.9613636,86.0644886 C49.1761374,85.8786923 49.2835227,85.6119336 49.2835227,85.2642045 C49.2835227,85.0698854 49.2349437,84.9113643 49.1377841,84.7886364 C49.0406245,84.6659085 48.9119326,84.5627845 48.7517045,84.4792614 C48.5914765,84.3957382 48.4090919,84.3250003 48.2045455,84.2670455 C47.999999,84.2090906 47.7920465,84.1460231 47.5806818,84.0778409 C47.3693171,84.0096588 47.1613647,83.9278414 46.9568182,83.8323864 C46.7522717,83.7369313 46.5698872,83.6125008 46.4096591,83.4590909 C46.249431,83.3056811 46.1207391,83.1139216 46.0235795,82.8838068 C45.92642,82.653692 45.8778409,82.3698881 45.8778409,82.0323864 C45.8778409,81.7630668 45.9315336,81.5005695 46.0389205,81.2448864 C46.1463074,80.9892033 46.3022717,80.762501 46.5068182,80.5647727 C46.7113647,80.3670445 46.9636349,80.2085233 47.2636364,80.0892045 C47.5636379,79.9698858 47.9079526,79.9102273 48.2965909,79.9102273 C48.7329567,79.9102273 49.1352254,79.9784084 49.5034091,80.1147727 C49.8715927,80.251137 50.185226,80.4420442 50.4443182,80.6875 L50.1017045,81.3369318 Z" id="S" opacity="0.5" fill="#FF8772"></path>
                    <path d="M18.84375,44.5375 L16.5477273,51.9318182 L15.3051136,51.9318182 L13.6892045,46.8795455 C13.6448861,46.7568176 13.6039775,46.6068191 13.5664773,46.4295455 C13.5460226,46.5147732 13.5255683,46.594886 13.5051136,46.6698864 C13.484659,46.7448867 13.4625001,46.8147724 13.4386364,46.8795455 L11.8073864,51.9318182 L10.5596591,51.9318182 L8.26875,44.5375 L9.41931818,44.5375 C9.53863696,44.5375 9.63835187,44.5656247 9.71846591,44.621875 C9.79857995,44.6781253 9.85227259,44.7539768 9.87954545,44.8494318 L11.1375,49.2727273 C11.1647729,49.3818187 11.1911931,49.5002835 11.2167614,49.628125 C11.2423297,49.7559665 11.2687499,49.889772 11.2960227,50.0295455 C11.3232956,49.8863629 11.3531248,49.7517052 11.3855114,49.6255682 C11.4178979,49.4994312 11.4528407,49.3818187 11.4903409,49.2727273 L12.9426136,44.8494318 C12.9698865,44.7710223 13.0235791,44.6994321 13.1036932,44.6346591 C13.1838072,44.569886 13.2818176,44.5375 13.3977273,44.5375 L13.8017045,44.5375 C13.9210233,44.5375 14.0181814,44.566477 14.0931818,44.6244318 C14.1681822,44.6823867 14.2244316,44.7573859 14.2619318,44.8494318 L15.7090909,49.2727273 C15.7806822,49.484092 15.8454543,49.7278395 15.9034091,50.0039773 C15.9477275,49.7346577 15.9971588,49.4909102 16.0517045,49.2727273 L17.3096591,44.8494318 C17.3301137,44.7642041 17.3821019,44.6909094 17.465625,44.6295455 C17.5491481,44.5681815 17.6488631,44.5375 17.7647727,44.5375 L18.84375,44.5375 Z" id="W" opacity="0.5" fill="#FF8772"></path>
                </g>
            </g>
        </g>
    </g>
</svg>