<?xml version="1.0" encoding="UTF-8"?>
<svg width="554px" height="94px" viewBox="0 0 554 94" version="1.1" xmlns="http://www.w3.org/2000/svg" xmlns:xlink="http://www.w3.org/1999/xlink">
    <!-- Generator: Sketch 47.1 (45422) - http://www.bohemiancoding.com/sketch -->
    <title>Group</title>
    <desc>Created with Sketch.</desc>
    <defs></defs>
    <g id="Page-1" stroke="none" stroke-width="1" fill="none" fill-rule="evenodd">
        <g id="Group" fill="#FFFFFF">
            <path d="M14.801,61.9540049 C6.601,61.9540049 0,55.6810049 0,47.1120049 L0,47.0300049 C0,38.6660049 6.396,32.1060049 15.088,32.1060049 C20.951,32.1060049 24.723,34.5660049 27.265,38.0510049 L21.279,42.6840049 C19.639,40.6750049 17.753,39.3220049 15.006,39.3220049 C10.988,39.3220049 8.159,42.7660049 8.159,46.9480049 L8.159,47.0300049 C8.159,51.3350049 10.988,54.6970049 15.006,54.6970049 C17.999,54.6970049 19.762,53.3030049 21.484,51.2120049 L27.47,55.4760049 C24.764,59.2070049 21.115,61.9540049 14.801,61.9540049 Z M41.0119876,61.3800049 L53.1889876,32.4750049 L60.8559876,32.4750049 L73.0739876,61.3800049 L64.5459876,61.3800049 L62.4959876,56.2140049 L51.3849876,56.2140049 L49.3349876,61.3800049 L41.0119876,61.3800049 Z M53.7219876,50.0230049 L60.1589876,50.0230049 L56.9609876,41.9050049 L53.7219876,50.0230049 Z M88.5619874,61.3800049 L88.5619874,32.6800049 L102.132987,32.6800049 C106.519987,32.6800049 109.553987,33.8280049 111.480987,35.7550049 C113.161987,37.4360049 114.022987,39.6090049 114.022987,42.4380049 L114.022987,42.5200049 C114.022987,46.9480049 111.685987,49.8590049 108.118987,51.3760049 L114.965987,61.3800049 L105.822987,61.3800049 L100.041987,52.6880049 L96.5159874,52.6880049 L96.5159874,61.3800049 L88.5619874,61.3800049 Z M96.5159874,46.4560049 L101.804987,46.4560049 C104.469987,46.4560049 106.068987,45.1440049 106.068987,43.0530049 L106.068987,42.9710049 C106.068987,40.6750049 104.387987,39.5270049 101.763987,39.5270049 L96.5159874,39.5270049 L96.5159874,46.4560049 Z M137.751987,61.3800049 L137.751987,39.6500049 L129.182987,39.6500049 L129.182987,32.6800049 L154.315987,32.6800049 L154.315987,39.6500049 L145.705987,39.6500049 L145.705987,61.3800049 L137.751987,61.3800049 Z M185,62 C176.715729,62 170,55.2842712 170,47 C170,38.7157288 176.715729,32 185,32 C193.284271,32 200,38.7157288 200,47 C200,55.2842712 193.284271,62 185,62 Z M142.940901,68.0000167 L142.940893,68 L147.467853,68 C154.828983,81.1279614 168.878404,90 185,90 C208.748244,90 228,70.7482442 228,47 C228,23.2517558 208.748244,4 185,4 C168.878406,4 154.828986,12.8720363 147.467854,26 L142.940901,25.9999833 C150.652794,10.584494 166.590326,0 185,0 C210.957383,0 232,21.0426168 232,47 C232,72.9573832 210.957383,94 185,94 C166.590326,94 150.652794,83.415506 142.940901,68.0000167 Z" id="Brand-Negative-Solid"></path>
            <path d="M266.62207,35.0419922 L266.62207,60 L261.65918,60 L261.65918,35.0419922 L252.369141,35.0419922 L252.369141,30.5917969 L275.932617,30.5917969 L275.932617,35.0419922 L266.62207,35.0419922 Z M301.446289,51.0996094 C301.17285,51.1269533 300.721683,51.140625 300.092773,51.140625 L293.120117,51.140625 L293.120117,60 L288.157227,60 L288.157227,30.5917969 L300.092773,30.5917969 C303.838886,30.5917969 306.750966,31.4667881 308.829102,33.2167969 C310.907237,34.9668056 311.946289,37.4413903 311.946289,40.640625 C311.946289,42.9921993 311.419927,44.9780192 310.367188,46.5981445 C309.314448,48.2182698 307.810557,49.411129 305.855469,50.1767578 L312.438477,60 L306.819336,60 L301.446289,51.0996094 Z M305.383789,45.1933594 C306.614264,44.1953075 307.229492,42.7187598 307.229492,40.7636719 C307.229492,38.8632717 306.614264,37.4345751 305.383789,36.4775391 C304.153314,35.520503 302.38966,35.0419922 300.092773,35.0419922 L293.120117,35.0419922 L293.120117,46.6904297 L300.092773,46.6904297 C302.38966,46.6904297 304.153314,46.1914112 305.383789,45.1933594 Z M331.47168,35.0419922 L331.47168,42.9990234 L345.827148,42.9990234 L345.827148,47.4492187 L331.47168,47.4492187 L331.47168,55.5498047 L348.021484,55.5498047 L348.021484,60 L326.508789,60 L326.508789,30.5917969 L347.508789,30.5917969 L347.508789,35.0419922 L331.47168,35.0419922 Z M382.681641,60 L367.013672,38.9179688 L367.013672,60 L362.050781,60 L362.050781,30.5917969 L366.931641,30.5917969 L382.681641,51.7353516 L382.681641,30.5917969 L387.5625,30.5917969 L387.5625,60 L382.681641,60 Z M423.207031,32.4887695 C425.51759,33.7534243 427.325677,35.5034068 428.631348,37.7387695 C429.937018,39.9741323 430.589844,42.49315 430.589844,45.2958984 C430.589844,48.0986468 429.930182,50.6142467 428.61084,52.8427734 C427.291497,55.0713002 425.469738,56.8212827 423.145508,58.0927734 C420.821277,59.3642642 418.189468,60 415.25,60 L403.314453,60 L403.314453,30.5917969 L415.373047,30.5917969 C418.285171,30.5917969 420.896473,31.2241148 423.207031,32.4887695 Z M408.277344,55.5498047 L415.496094,55.5498047 C417.36915,55.5498047 419.078117,55.115727 420.623047,54.2475586 C422.167976,53.3793902 423.381343,52.1694414 424.263184,50.6176758 C425.145024,49.0659102 425.585938,47.3056739 425.585938,45.3369141 C425.585938,43.3818262 425.131352,41.6215899 424.222168,40.0561523 C423.312984,38.4907148 422.072273,37.2636763 420.5,36.375 C418.927727,35.4863237 417.191416,35.0419922 415.291016,35.0419922 L408.277344,35.0419922 L408.277344,55.5498047 Z M470.376953,60 L470.335938,38.0361328 L461.045898,56.9238281 L457.805664,56.9238281 L448.536133,38.0361328 L448.536133,60 L443.860352,60 L443.860352,30.5917969 L449.746094,30.5917969 L459.446289,50.1357422 L469.105469,30.5917969 L474.950195,30.5917969 L474.950195,60 L470.376953,60 Z M494.865234,53.3554688 L492.055664,60 L486.887695,60 L499.869141,30.5917969 L504.955078,30.5917969 L517.792969,60 L512.501953,60 L509.692383,53.3554688 L494.865234,53.3554688 Z M502.268555,35.8828125 L496.710938,48.9462891 L507.805664,48.9462891 L502.268555,35.8828125 Z M550.002441,33.2167969 C552.032725,34.9668056 553.047852,37.4413903 553.047852,40.640625 C553.047852,43.9765792 552.032725,46.5605377 550.002441,48.3925781 C547.972158,50.2246185 545.111347,51.140625 541.419922,51.140625 L534.652344,51.140625 L534.652344,60 L529.689453,60 L529.689453,30.5917969 L541.419922,30.5917969 C545.111347,30.5917969 547.972158,31.4667881 550.002441,33.2167969 Z M534.652344,46.6904297 L541.214844,46.6904297 C543.51173,46.6904297 545.268549,46.1914112 546.485352,45.1933594 C547.702155,44.1953075 548.310547,42.7187598 548.310547,40.7636719 C548.310547,38.8632717 547.702155,37.4345751 546.485352,36.4775391 C545.268549,35.520503 543.51173,35.0419922 541.214844,35.0419922 L534.652344,35.0419922 L534.652344,46.6904297 Z" id="TRENDMAP"></path>
        </g>
    </g>
</svg>