<?xml version="1.0" encoding="UTF-8" standalone="no"?>
<svg width="212px" height="212px" viewBox="0 0 212 212" version="1.1" xmlns="http://www.w3.org/2000/svg" xmlns:xlink="http://www.w3.org/1999/xlink" xmlns:sketch="http://www.bohemiancoding.com/sketch/ns">
    <!-- Generator: Sketch Beta 3.3 (11920) - http://www.bohemiancoding.com/sketch -->
    <title>Oval 1 + Imagotype + Oval 1 Copy + MAP OF THE DAY · CAR</title>
    <desc>Created with Sketch Beta.</desc>
    <defs></defs>
    <g id="Page-1" stroke="none" stroke-width="1" fill="none" fill-rule="evenodd" sketch:type="MSPage">
        <g id="White-map" sketch:type="MSArtboardGroup" transform="translate(-49.000000, -50.000000)">
            <g id="Oval-1-+-Imagotype-+-Oval-1-Copy-+-MAP-OF-THE-DAY-·-CAR" sketch:type="MSLayerGroup" transform="translate(49.000000, 50.000000)">
                <g id="Oval-1-+-Imagotype" transform="translate(0.500000, 0.500000)" sketch:type="MSShapeGroup">
                    <circle id="Oval-1" stroke="#FFFFFF" stroke-width="2" opacity="0.2" cx="105.5" cy="105.5" r="65"></circle>
                    <circle id="Oval-1-Copy-2" stroke="#FFFFFF" stroke-width="2" opacity="0.2" cx="105.5" cy="105.5" r="105"></circle>
                    <path d="M101.891278,135.560777 C98.0456809,135.560777 97.7847556,136.046306 97.7847556,136.046306 L98.7293133,141.976589 C98.7293133,141.976589 99.5701516,142.545455 101.766663,142.545455 C103.963173,142.545455 104.679498,141.976589 104.679498,141.976589 L105.973447,136.078712 C105.973447,136.078712 105.736977,135.560777 101.891278,135.560777 Z M128.398836,91.5929832 L128.188042,91.4275226 C128.188042,91.4275226 128.563008,91.2518154 128.766837,91.0552616 C129.16519,90.670331 129.396932,90.1892435 129.317769,90.2424453 C128.634086,90.7002633 127.298191,90.47726 127.298191,90.47726 C127.298191,90.47726 127.760556,90.3916526 128.034243,90.2147844 C128.452425,89.9453431 128.573532,89.5729306 128.522232,89.6087686 C128.188042,89.8376776 127.825787,89.9049118 127.574319,89.9049118 C125.994989,89.9095555 125.738792,88.5485691 124.275942,88.5485691 C123.675031,88.5485691 122.411333,89.1648315 122.018827,88.5532129 C119.8666,83.4333233 116.62532,76.0322179 113.465643,68.5454545 C100.418006,71.1932277 94.6168929,93.2001416 107.303495,97.1094129 C100.405245,95.1380191 97.0661434,88.380837 98.1120308,82.5082482 C93.3893442,84.1188894 87.2376696,86.6338095 82.433482,92.4416375 C79.5544064,95.9219631 79.5661511,99.6439682 79.5661511,107.008075 C79.4239946,109.272179 77.5454545,110.133402 77.5454545,110.133402 C77.5454545,110.133402 79.7839108,110.226026 80.498964,109.082339 C83.5818176,114.304038 98.4648798,127.737338 98.4648798,130.808504 C98.4648798,130.808504 97.9314371,132.250303 98.09449,132.269938 C99.4490949,132.427222 105.754467,132.738356 105.754467,132.738356 C106.029323,131.694259 105.3945,130.960942 105.3945,130.22808 C105.3945,122.756207 116.080235,115.82564 117.335798,114.975875 C117.78418,115.239461 118.565634,115.470692 118.948786,115.636102 C122.546423,117.188898 118.379295,125.986878 114.650077,125.986878 C110.353708,125.986878 117.073703,118.918662 117.208843,118.74987 C117.656056,118.191454 116.436693,118.708177 116.051152,118.335916 C115.815903,118.108118 116.080235,117.498821 115.494424,117.971681 C115.494424,117.971681 106.57085,125.61921 112.880951,127.869081 C124.840857,132.134612 142.336172,104.697936 128.398836,91.5929832 Z" id="Imagotype" fill="#FFFFFF"></path>
                </g>
                <circle id="Oval-1-Copy" sketch:type="MSShapeGroup" cx="106.045455" cy="106.045455" r="89.4886364"></circle>
                <path d="M110.601343,196.394876 L111.039821,196.379426 L110.739714,187.862325 L114.829504,193.305774 L114.856078,193.304838 L118.552593,187.587032 L118.8527,196.104132 L119.304465,196.088214 L118.976735,186.787168 L118.551544,186.80215 L114.831265,192.600616 L110.698804,187.078848 L110.273613,187.09383 L110.601343,196.394876 Z M133.65409,192.15069 L134.097569,192.009734 L134.492399,189.038264 L139.978869,187.294441 L142.004167,189.496697 L142.472988,189.347687 L135.427024,181.751816 L135.021557,181.88069 L133.65409,192.15069 Z M134.557615,188.585058 L135.372712,182.327113 L139.66396,186.962055 L134.557615,188.585058 Z M155.25714,181.755719 L155.638152,181.512459 L153.713533,178.497988 L156.044425,177.009807 C157.837419,175.865053 158.552807,174.193692 157.551147,172.624822 L157.536838,172.60241 C156.585261,171.111984 154.888211,170.949319 153.050392,172.122693 L150.24884,173.911371 L155.25714,181.755719 Z M153.484582,178.139389 L150.851647,174.015504 L153.23857,172.491549 C154.852264,171.46127 156.340189,171.568162 157.162981,172.856876 L157.177291,172.879289 C158.007238,174.179209 157.451581,175.60662 155.82668,176.644054 L153.484582,178.139389 Z M184.374536,150.947075 C185.906051,148.580818 185.00551,145.812417 182.873647,144.432608 L182.851324,144.41816 C180.71946,143.038352 177.832284,143.339388 176.300769,145.705645 C174.769254,148.071902 175.669795,150.840303 177.801659,152.220112 L177.823982,152.23456 C179.955846,153.614368 182.843021,153.313332 184.374536,150.947075 L184.374536,150.947075 Z M184.042975,150.700804 C182.692063,152.788021 180.041266,153.115351 178.065665,151.83668 L178.043341,151.822232 C176.06774,150.543561 175.288642,148.027972 176.639554,145.940755 C177.983242,143.864699 180.634039,143.537369 182.609641,144.81604 L182.631964,144.830488 C184.607565,146.109159 185.386663,148.624748 184.042975,150.700804 L184.042975,150.700804 Z M191.833887,132.483614 L191.969062,132.052253 L187.807694,130.748204 L189.437755,125.546494 L189.044455,125.423246 L187.414394,130.624956 L183.481394,129.392471 L185.286388,123.632528 L184.893088,123.50928 L182.952918,129.700584 L191.833887,132.483614 Z M194.393156,92.385878 L194.33898,91.9370907 L185.508429,93.0030773 L185.110078,89.7031703 L184.700889,89.7525658 L185.550173,96.7879675 L185.959362,96.738572 L185.562604,93.4518647 L194.393156,92.385878 Z M189.440234,74.5449473 L189.282768,74.1212146 L185.082829,75.6819836 L182.864406,69.7123367 L187.064346,68.1515677 L186.906879,67.727835 L178.182969,70.9697884 L178.340436,71.3935212 L182.478061,69.855909 L184.696484,75.8255558 L180.558858,77.363168 L180.716324,77.7869008 L189.440234,74.5449473 Z M178.47622,54.4746025 L174.668417,49.0579543 L174.331236,49.2949863 L177.879069,54.3418231 L174.550767,56.6815579 L171.377597,52.1676845 L171.040416,52.4047164 L174.213586,56.9185899 L170.939668,59.2200938 L167.430066,54.2276409 L167.092885,54.4646729 L170.862458,59.826937 L178.47622,54.4746025 Z M150.179753,29.155194 L147.186317,27.3999082 C144.663114,25.920357 141.89085,26.6528945 140.565979,28.9123081 L140.552528,28.9352463 C139.227657,31.1946598 139.955451,33.94873 142.478654,35.4282812 L145.47209,37.183567 L150.179753,29.155194 Z M143.23188,34.1437415 C141.545922,33.1551323 141.124136,31.3511304 142.045493,29.7798631 L142.058944,29.7569249 C142.980301,28.1856576 144.747133,27.6958387 146.433091,28.6844479 L148.015827,29.61253 L144.814616,35.0718237 L143.23188,34.1437415 Z M130.076451,20.7946662 L128.464689,20.3379283 L126.931073,22.2387431 L122.697,21.0388998 L122.401393,18.6197238 L120.738464,18.1484862 L122.12277,28.2831491 L123.581031,28.6963882 L130.076451,20.7946662 Z M125.960329,23.4699245 L123.410345,26.6166294 L122.877515,22.5963226 L125.960329,23.4699245 Z M104.908874,17.4444156 L103.261033,17.3932055 L103.14581,21.1008474 L99.277591,26.580723 L101.151345,26.6389538 L103.910187,22.6144118 L106.373938,26.8012568 L108.314137,26.8615526 L104.79489,21.1121903 L104.908874,17.4444156 Z M70.8960043,28.3675269 L70.0904633,28.7155356 L70.5386563,29.7529747 L71.3441972,29.4049661 L70.8960043,28.3675269 Z M39.3467695,46.8125743 C38.1678368,47.965015 37.8626351,49.1743937 37.8375315,50.5561897 L38.4862865,50.5541597 C38.5107492,49.228768 38.804307,48.2166971 39.7645667,47.2780156 C41.3523228,45.7259382 43.8613481,45.8390661 45.5063642,47.5218974 L45.524952,47.5409125 C47.1606743,49.2142363 47.2264801,51.6970891 45.6292165,53.2584604 C44.6309267,54.2343174 43.5564696,54.4665578 42.4281721,54.4725405 L42.4295611,55.1776998 C43.7274985,55.1360371 44.868081,54.8763424 46.0565212,53.7146078 C47.9770406,51.8372447 47.859958,48.9025174 46.0197704,47.0200281 L46.0011827,47.0010131 C44.1331135,45.0900012 41.2482739,44.953799 39.3467695,46.8125743 L39.3467695,46.8125743 Z M29.0880133,61.2530022 L28.7163564,61.867274 L30.3333899,64.2286619 L27.4909027,68.9267038 L24.6487778,68.5901377 L24.2564733,69.2385357 L34.5198397,70.3823417 L34.8639665,69.8135715 L29.0880133,61.2530022 Z M30.7166181,64.8024 L34.0503876,69.6942767 L28.1769624,68.9999241 L30.7166181,64.8024 Z M19.6475435,83.4433378 L19.4555637,84.1075121 L23.1596124,85.1781687 L22.3141629,88.1030899 L17.7868162,89.880719 L17.5431495,90.7237094 L22.2149848,88.8771269 C21.9836996,90.4433622 22.5182656,91.8019354 24.0126577,92.23389 L24.0382028,92.2412738 C24.6768319,92.4258698 25.3509816,92.3439384 25.8943102,92.0442765 C26.5858192,91.6628887 27.1854213,90.8812624 27.5029264,89.7828203 L28.5883507,86.0276813 L19.6475435,83.4433378 Z M23.7599237,85.3516889 L27.7832869,86.5146434 L26.9009182,89.5672905 C26.4320445,91.1894083 25.4052601,91.9167562 24.2046375,91.5697157 L24.1790923,91.5623319 C22.8890615,91.1894481 22.4566762,89.8604102 22.8886308,88.3660182 L23.7599237,85.3516889 Z M16.4431464,108.104457 L16.4213978,108.795478 L25.0857439,109.068172 L24.9836928,112.310658 L25.6215588,112.330733 L25.8474097,105.154741 L25.2095437,105.134665 L25.1074926,108.377151 L16.4431464,108.104457 Z M19.2508433,130.364855 C19.8083406,133.127808 22.4077369,134.515753 24.8970009,134.013479 L24.9230665,134.00822 C27.4123306,133.505947 29.2493442,131.249968 28.691847,128.487015 C28.1343497,125.724063 25.5349534,124.336118 23.0456894,124.838391 L23.0196238,124.843651 C20.5303598,125.345924 18.6933461,127.601903 19.2508433,130.364855 L19.2508433,130.364855 Z M19.8686442,130.267325 C19.4137054,128.012651 20.9330197,125.997101 23.1876934,125.542162 L23.213759,125.536903 C25.4684327,125.081964 27.6191074,126.329872 28.0740462,128.584546 C28.5289849,130.839219 27.0096706,132.85477 24.7549969,133.309708 L24.7289313,133.314968 C22.4742577,133.769907 20.3235829,132.521998 19.8686442,130.267325 L19.8686442,130.267325 Z M26.8478343,148.802324 L28.2537873,151.562743 C29.5812965,154.169147 32.3111205,155.046714 34.6450373,153.85799 L34.6687319,153.845921 C37.0026486,152.657197 37.8744016,149.945254 36.5468924,147.33885 L35.1409394,144.578431 L26.8478343,148.802324 Z M35.9782223,147.628488 C37.1548782,149.938711 36.2858447,152.21657 34.3191941,153.218236 L34.2954995,153.230304 C32.3170016,154.238004 29.9991133,153.583327 28.8224573,151.273105 L27.7302793,149.128745 L34.8860443,145.484128 L35.9782223,147.628488 Z M40.2772338,167.750299 L42.9750329,170.759979 C44.3150581,172.254919 45.9351115,172.588244 47.0934423,171.549947 L47.1132429,171.532198 C48.0735684,170.671387 47.89208,169.512799 47.3644413,168.485942 C48.0979847,168.846147 49.1234063,169.033995 50.0639314,168.190933 L50.0837319,168.173184 C50.5193435,167.782713 50.7436638,167.295959 50.7734156,166.751495 C50.8134267,166.019286 50.4731751,165.181559 49.7721023,164.399438 L47.2074183,161.538262 L40.2772338,167.750299 Z M49.5440901,167.710591 C48.6233656,168.535904 47.4528767,168.245976 46.5210711,167.206448 L44.4710988,164.919487 L47.1936713,162.479044 L49.2880153,164.815506 C50.2819413,165.924336 50.3262109,167.009518 49.5638906,167.692842 L49.5440901,167.710591 Z M46.6429029,171.007484 L46.6231024,171.025233 C45.7518792,171.806175 44.5329149,171.541843 43.4679942,170.353812 L41.2139121,167.839145 L43.9958861,165.345455 L46.0991045,167.691818 C47.3237633,169.058054 47.4943255,170.244291 46.6429029,171.007484 L46.6429029,171.007484 Z M73.4425117,186.744945 L74.2504311,187.087396 L74.6914662,186.046894 L73.8835468,185.704443 L73.4425117,186.744945 Z" id="MAP-OF-THE-DAY-·-CAR" fill="#FFFFFF" sketch:type="MSShapeGroup"></path>
            </g>
        </g>
    </g>
</svg>