<?xml version="1.0" encoding="UTF-8" standalone="no"?>
<svg width="40px" height="40px" viewBox="0 0 40 40" version="1.1" xmlns="http://www.w3.org/2000/svg" xmlns:xlink="http://www.w3.org/1999/xlink" xmlns:sketch="http://www.bohemiancoding.com/sketch/ns">
    <!-- Generator: Sketch Beta 3.3 (11893) - http://www.bohemiancoding.com/sketch -->
    <title>Group</title>
    <desc>Created with Sketch Beta.</desc>
    <defs></defs>
    <g id="Page-1" stroke="none" stroke-width="1" fill="none" fill-rule="evenodd" sketch:type="MSPage">
        <g id="Desktop-HD-Copy-2" sketch:type="MSArtboardGroup" transform="translate(-1360.000000, -814.000000)">
            <g id="Group" sketch:type="MSLayerGroup" transform="translate(1360.000000, 814.000000)">
                <circle id="Oval-3" fill="#FFFFFF" sketch:type="MSShapeGroup" cx="20" cy="20" r="20"></circle>
                <path d="M20,26.5454545 C23.6149547,26.5454545 26.5454545,23.6149547 26.5454545,20 C26.5454545,16.3850453 23.6149547,13.4545455 20,13.4545455 C16.3850453,13.4545455 13.4545455,16.3850453 13.4545455,20 C13.4545455,23.6149547 16.3850453,26.5454545 20,26.5454545 L20,26.5454545 Z M20,28 L20,28 C15.581722,28 12,24.418278 12,20 C12,15.581722 15.581722,12 20,12 C24.418278,12 28,15.581722 28,20 C28,24.418278 24.418278,28 20,28 L20,28 Z" id="Shape" fill="#101210" sketch:type="MSShapeGroup"></path>
                <rect id="Rectangle-2" fill="#FFFFFF" sketch:type="MSShapeGroup" x="21" y="10" width="8" height="10"></rect>
                <path d="M23.2106031,13.0028425 C23.2661249,12.7690087 23.2027909,12.5146849 23.021704,12.3335981 L20.3993451,9.71123913 C20.1214879,9.43338195 19.6656869,9.43472019 19.383732,9.71667513 C19.0998113,10.0005958 19.0993432,10.4533356 19.378296,10.7322883 L21.6467171,13.0007094 L19.378296,15.2691305 C19.1004388,15.5469877 19.101777,16.0027887 19.383732,16.2847437 C19.6676526,16.5686644 20.1203924,16.5691324 20.3993451,16.2901797 L23.021704,13.6678207 C23.2008284,13.4886964 23.2639216,13.2356203 23.2106031,13.0028425 Z" id="Rectangle-4" fill="#101210" sketch:type="MSShapeGroup"></path>
            </g>
        </g>
    </g>
</svg>