<?xml version="1.0" encoding="UTF-8" standalone="no"?>
<svg width="17px" height="19px" viewBox="0 0 17 19" version="1.1" xmlns="http://www.w3.org/2000/svg" xmlns:xlink="http://www.w3.org/1999/xlink" xmlns:sketch="http://www.bohemiancoding.com/sketch/ns">
    <!-- Generator: Sketch Beta 3.3 (11920) - http://www.bohemiancoding.com/sketch -->
    <title>Shape + Rectangle 2 + Rectangle 4</title>
    <desc>Created with Sketch Beta.</desc>
    <defs></defs>
    <g id="Page-1" stroke="none" stroke-width="1" fill="none" fill-rule="evenodd" sketch:type="MSPage">
        <g id="White-map" sketch:type="MSArtboardGroup" transform="translate(-322.000000, -819.000000)">
            <g id="Group" sketch:type="MSLayerGroup" transform="translate(310.000000, 810.000000)">
                <g id="Shape-+-Rectangle-2-+-Rectangle-4" transform="translate(12.000000, 9.000000)" sketch:type="MSShapeGroup">
                    <path d="M8,17.5454545 C11.6149547,17.5454545 14.5454545,14.6149547 14.5454545,11 C14.5454545,7.38504527 11.6149547,4.45454545 8,4.45454545 C4.38504527,4.45454545 1.45454545,7.38504527 1.45454545,11 C1.45454545,14.6149547 4.38504527,17.5454545 8,17.5454545 L8,17.5454545 Z M8,19 L8,19 C3.581722,19 0,15.418278 0,11 C0,6.581722 3.581722,3 8,3 C12.418278,3 16,6.581722 16,11 C16,15.418278 12.418278,19 8,19 L8,19 Z" id="Shape" fill="#FFFFFF"></path>
                    <rect id="Rectangle-2" fill="#30302F" x="9" y="1" width="8" height="10"></rect>
                    <path d="M11.2106031,4.00284254 C11.2661249,3.76900872 11.2027909,3.51468493 11.021704,3.33359806 L8.39934511,0.711239128 C8.12148793,0.43338195 7.66568689,0.434720187 7.38373195,0.716675126 C7.09981128,1.0005958 7.09934323,1.45333556 7.37829595,1.73228828 L9.64671708,4.00070941 L7.37829595,6.26913053 C7.10043878,6.5469877 7.10177701,7.00278875 7.38373195,7.28474368 C7.66765263,7.56866436 8.12039239,7.5691324 8.39934511,7.29017968 L11.021704,4.66782075 C11.2008284,4.48869644 11.2639216,4.23562031 11.2106031,4.00284254 Z" id="Rectangle-4" fill="#FFFFFF"></path>
                </g>
            </g>
        </g>
    </g>
</svg>