<?xml version="1.0" encoding="UTF-8" standalone="no"?>
<svg width="17px" height="14px" viewBox="0 0 17 14" version="1.1" xmlns="http://www.w3.org/2000/svg" xmlns:xlink="http://www.w3.org/1999/xlink" xmlns:sketch="http://www.bohemiancoding.com/sketch/ns">
    <!-- Generator: Sketch Beta 3.3 (11920) - http://www.bohemiancoding.com/sketch -->
    <title>Fill 1</title>
    <desc>Created with Sketch Beta.</desc>
    <defs></defs>
    <g id="Page-1" stroke="none" stroke-width="1" fill="none" fill-rule="evenodd" sketch:type="MSPage">
        <g id="White-map" sketch:type="MSArtboardGroup" transform="translate(-62.000000, -823.000000)" fill="#FFFFFF">
            <g id="Rectangle-1-+-VIEW-ON-CARTODB-+-Rectangle-1-Copy-2-+-t" sketch:type="MSLayerGroup" transform="translate(50.000000, 810.000000)">
                <g id="Rectangle-1-Copy-2-+-t" sketch:type="MSShapeGroup">
                    <path d="M17.3464282,27 C15.376806,27 13.5434873,26.4149286 12,25.412147 C12.2728556,25.4447875 12.5504993,25.4614858 12.8319982,25.4614858 C14.4660229,25.4614858 15.9699001,24.8964524 17.1635502,23.9485548 C15.6373496,23.9200101 14.3493069,22.8981987 13.9055123,21.4940273 C14.1184242,21.5353005 14.3369326,21.5574179 14.5616592,21.5574179 C14.8797835,21.5574179 15.1878964,21.5142543 15.4805882,21.4334723 C13.8849921,21.1088317 12.6828231,19.6803374 12.6828231,17.9679086 C12.6828231,17.9530377 12.6828231,17.9382297 12.6830718,17.9234848 C13.153356,18.1882005 13.6911079,18.3471811 14.2628736,18.3655177 C13.327031,17.7317376 12.7112404,16.6499383 12.7112404,15.4237773 C12.7112404,14.7760714 12.8832364,14.1689456 13.1834522,13.6469497 C14.9036614,15.7852173 17.4735908,17.1922873 20.3722777,17.3396736 C20.3128315,17.0810071 20.2819269,16.8112504 20.2819269,16.5342473 C20.2819269,14.5824339 21.8435715,13 23.7697904,13 C24.7729142,13 25.6793445,13.4292414 26.3155931,14.1161411 C27.1100333,13.9576016 27.8564688,13.663459 28.5303376,13.2584774 C28.2699184,14.0837527 27.7169319,14.7763865 26.9967994,15.2138196 C27.702319,15.1283745 28.3745089,14.9383917 29,14.6572928 C28.5323896,15.3660578 27.9410366,15.9885587 27.2596437,16.4868619 C27.2663594,16.638407 27.2697173,16.7908344 27.2697173,16.9440809 C27.2697173,21.6145073 23.7616445,27 17.3464282,27" id="Fill-1"></path>
                </g>
            </g>
        </g>
    </g>
</svg>